# xmcd
#
# Track frame offsets: 
#        180
#        22690
#        44427
#        76590
#        100533
#        119305
#        142931
#        165476
#        192565
#        215988
#        240526
#        266212
#        289643
#
# Disc length: 4181 seconds
#
# Revision: 0
# Processed by: cddbd v1.5.2PL0 Copyright (c) Steve Scherf et al.
# Submitted via: ExactAudioCopy v0.99pb3
#
DISCID=ac10530d
DTITLE=Aurlus Mabele - Best Of
DYEAR=1998
DGENRE=Soukouss
TTITLE0=Evelyne
TTITLE1=Génération Wachiwa
TTITLE2=Femme Ivorienne
TTITLE3=Rosine
TTITLE4=Mali Bamako
TTITLE5=Rosa
TTITLE6=Stop Arrêtez
TTITLE7=Douce Isabelle
TTITLE8=Khadydja
TTITLE9=Keba
TTITLE10=Zenab
TTITLE11=Soukous trouble
TTITLE12=Loketo
EXTD=
EXTT0=
EXTT1=
EXTT2=
EXTT3=
EXTT4=
EXTT5=
EXTT6=
EXTT7=
EXTT8=
EXTT9=
EXTT10=
EXTT11=
EXTT12=
PLAYORDER=
